<?xml version="1.0" standalone="no"?>
<!DOCTYPE svg PUBLIC "-//W3C//DTD SVG 20010904//EN"
 "http://www.w3.org/TR/2001/REC-SVG-20010904/DTD/svg10.dtd">
<svg version="1.0" xmlns="http://www.w3.org/2000/svg"
 width="512.000000pt" height="512.000000pt" viewBox="0 0 512.000000 512.000000"
 preserveAspectRatio="xMidYMid meet">

<g transform="translate(0.000000,512.000000) scale(0.100000,-0.100000)"
fill="#000000" stroke="none">
<path d="M1955 5030 c-256 -41 -415 -171 -487 -400 -21 -69 -23 -92 -23 -305
0 -217 1 -232 22 -270 46 -85 117 -128 213 -129 95 -1 167 43 213 129 20 36
22 58 25 233 l4 192 399 0 400 0 -7 48 c-36 250 -187 423 -421 482 -91 24
-252 33 -338 20z"/>
<path d="M2240 4240 l0 -80 80 0 80 0 0 80 0 80 -80 0 -80 0 0 -80z"/>
<path d="M1920 3670 c-155 -33 -280 -161 -310 -319 -6 -31 -10 -241 -10 -502
l0 -449 480 0 480 0 0 160 0 160 280 0 280 0 0 160 0 160 -279 0 -279 0 -4
163 c-4 136 -8 171 -27 217 -43 111 -122 189 -235 233 -40 16 -80 21 -191 23
-77 2 -160 -1 -185 -6z"/>
<path d="M240 3000 l0 -600 560 0 560 0 0 600 0 600 -560 0 -560 0 0 -600z"/>
<path d="M3527 3269 c-89 -21 -179 -95 -216 -179 l-20 -45 39 -13 c48 -16 97
-70 106 -117 16 -85 -33 -166 -112 -187 -41 -11 -44 -14 -44 -47 0 -19 73
-242 165 -502 91 -257 165 -473 165 -481 0 -8 -14 -22 -31 -32 -49 -29 -160
-146 -217 -229 -61 -89 -120 -209 -155 -317 l-24 -75 -70 -3 -70 -3 -5 73 c-7
107 -48 176 -133 221 -37 20 -57 22 -272 25 l-233 3 0 -160 0 -161 -128 0
-129 0 -60 39 c-107 69 -163 165 -163 281 0 120 64 225 178 290 l61 35 1 158
0 157 -840 0 -841 0 -44 -45 c-191 -191 -317 -599 -350 -1132 l-6 -103 159 0
159 0 7 -62 c12 -99 52 -210 107 -292 81 -122 185 -201 334 -252 70 -24 95
-28 195 -28 97 0 127 5 196 27 85 28 175 81 243 142 98 89 180 256 197 403 l7
62 721 0 722 0 -4 -40 -4 -40 206 0 c198 0 206 -1 206 -19 0 -49 54 -185 101
-255 81 -122 185 -201 334 -252 70 -24 95 -28 195 -28 97 0 127 5 196 27 141
47 252 131 334 254 75 112 104 210 104 353 0 98 -5 127 -27 196 -28 85 -81
175 -142 243 l-37 41 226 2 225 3 -33 83 c-96 238 -305 431 -547 507 l-57 18
-6 56 c-13 113 -88 216 -191 263 -43 19 -73 23 -209 28 l-159 5 -74 220 c-40
121 -76 228 -79 238 -5 16 7 17 155 17 l161 0 0 320 0 320 -217 -1 c-120 -1
-235 -5 -256 -10z m765 -2257 c59 -26 127 -93 159 -157 35 -72 35 -198 0 -270
-32 -63 -93 -124 -156 -156 -41 -20 -65 -24 -135 -24 -70 0 -94 4 -135 24
-178 88 -238 304 -130 468 38 57 105 109 169 129 57 19 170 12 228 -14z
m-2936 -339 c-13 -100 -85 -196 -181 -244 -41 -20 -65 -24 -135 -24 -70 0 -94
4 -135 24 -96 48 -168 144 -181 244 l-7 47 323 0 323 0 -7 -47z"/>
</g>
</svg>
