<?xml version="1.0" encoding="UTF-8"?>
<svg version="1.1" xmlns="http://www.w3.org/2000/svg" width="512" height="512">
<path d="M0 0 C4.66241595 3.87590854 7.78362636 7.86703883 10.20703125 13.40625 C13.74386415 19.69395293 19.8042592 23.82042409 25.89453125 27.46875 C29.3036983 29.64633314 29.77452763 30.03360718 31.08203125 34.09375 C30.89453125 37.40625 30.89453125 37.40625 28.89453125 40.40625 C25.04524753 41.19181811 22.76577249 40.96218489 19.43359375 38.8359375 C17.19024781 37.08796763 15.01983829 35.29541182 12.89453125 33.40625 C12.85714844 34.50582031 12.81976563 35.60539062 12.78125 36.73828125 C12.23093204 50.07895628 11.05683461 64.07772837 0.64453125 73.71875 C-9.55933232 81.61851534 -20.66571334 82.04995152 -33.12109375 80.66015625 C-34.10335937 80.53447266 -34.10335937 80.53447266 -35.10546875 80.40625 C-36.67913264 86.94300771 -35.67940714 90.22393753 -32.33203125 96.01171875 C-26.68144922 107.04295055 -30.23306023 124.11981063 -30.98046875 136.09375 C-31.05885986 137.38716309 -31.13725098 138.68057617 -31.21801758 140.01318359 C-31.78460703 148.56254578 -32.77137796 156.9441858 -34.10546875 165.40625 C-33.30302734 165.44169922 -32.50058594 165.47714844 -31.67382812 165.51367188 C-18.59501276 166.1609624 -5.91680555 169.02008724 6.45703125 173.21875 C17.04020891 176.71471391 24.17916201 174.36997829 34.6328125 171.2734375 C41.7123623 169.39120989 48.3086842 170.08856765 54.89453125 173.40625 C55.46945312 174.11652344 56.044375 174.82679688 56.63671875 175.55859375 C58.90306362 177.81262739 58.90306362 177.81262739 62.73046875 177.39453125 C64.24637711 177.18960165 65.75947698 176.96310711 67.26953125 176.71875 C68.89170211 176.50092217 70.51410211 176.28479445 72.13671875 176.0703125 C72.94077148 175.95719727 73.74482422 175.84408203 74.57324219 175.72753906 C85.59877707 174.20149742 94.58680097 173.43471612 104.26953125 179.53125 C111.28192281 187.21148837 112.18038636 196.46649116 112.04296875 206.51171875 C111.52126661 216.68491039 109.24464799 226.79057364 101.45703125 233.90625 C98.53043332 236.33215287 95.48790007 237.24818016 91.89453125 238.40625 C99.34820092 273.38079822 99.34820092 273.38079822 122.1796875 300.05078125 C126.8883104 304.13610443 132.22905439 309.398663 134.65771484 315.24267578 C135.55248595 317.31660262 136.32518298 318.77213326 137.89453125 320.40625 C141.41717207 321.61194699 144.94625155 321.78928143 148.64453125 322.03125 C171.87226635 324.32939407 193.68370373 332.59554893 209.36328125 350.390625 C212.26609431 354.21167485 212.28937184 357.747131 211.89453125 362.40625 C209.89453125 365.71875 209.89453125 365.71875 207.89453125 368.40625 C207.89453125 371.25667357 209.28920467 373.23932288 210.58789062 375.7109375 C219.13172968 391.99343707 221.58468606 406.9529293 216.21484375 424.80859375 C209.79252136 442.30847222 197.64477177 457.1047176 180.70703125 465.21875 C163.57332125 472.90178368 145.520738 475.26994544 127.359375 469.7265625 C111.10073524 463.53104926 98.68360772 451.49800116 91.01953125 435.96875 C87.69886477 428.15344404 86.5102126 419.86126029 86.89453125 411.40625 C86.37663528 412.05845016 85.85873932 412.71065033 85.32514954 413.38261414 C82.06837185 416.09407738 80.2074956 415.86451579 76.00463867 415.78442383 C75.31401368 415.77684083 74.62338869 415.76925783 73.91183567 415.76144505 C71.60714683 415.73128373 69.30411801 415.67224489 67 415.61328125 C65.35999344 415.58608783 63.71995595 415.56070661 62.07989502 415.53701782 C57.66248327 415.46829205 53.24590139 415.37490802 48.82905197 415.27705002 C44.25290335 415.17993042 39.67639104 415.10567034 35.09985352 415.02954102 C27.6542139 414.90313773 20.20891123 414.76425404 12.76367188 414.61621094 C2.67746541 414.4164392 -7.40903573 414.25149132 -17.49609375 414.1015625 C-18.98935461 414.07922907 -20.48261531 414.05688527 -21.97587585 414.03453064 C-24.13256849 414.00226319 -26.28926137 413.97001393 -28.44595623 413.93789577 C-39.33268995 413.77507086 -50.21907781 413.59038394 -61.10546875 413.40625 C-61.32372314 415.28606567 -61.32372314 415.28606567 -61.54638672 417.20385742 C-63.3116736 432.40819711 -73.09975154 446.53999361 -84.48046875 456.34375 C-101.05430225 469.19284566 -121.06530023 474.35932925 -141.8203125 471.98046875 C-155.82456186 469.62474879 -166.19721913 463.42318243 -176.10546875 453.40625 C-176.93111328 452.63087891 -176.93111328 452.63087891 -177.7734375 451.83984375 C-186.53944513 442.83882251 -192.10546875 428.82546177 -192.10546875 416.40625 C-192.79769531 416.4784375 -193.48992187 416.550625 -194.203125 416.625 C-220.81382448 419.14933513 -220.81382448 419.14933513 -229.10546875 415.40625 C-233.10673413 411.39985539 -233.61728264 408.62772742 -233.63671875 403.04296875 C-233.64054565 402.33332474 -233.64437256 401.62368073 -233.64831543 400.89253235 C-233.65103116 399.38887109 -233.64369345 397.88516232 -233.62695312 396.3815918 C-233.6058844 394.13801233 -233.62657669 391.89776554 -233.65234375 389.65429688 C-233.71196291 360.54609332 -218.980621 336.71753412 -199.10546875 316.40625 C-198.15027344 315.39304687 -198.15027344 315.39304687 -197.17578125 314.359375 C-193.42354915 310.45152037 -189.35125955 307.14189644 -185.0234375 303.88671875 C-181.3791069 301.07368149 -180.43494497 298.77452902 -179.10546875 294.40625 C-179.84410156 294.4784375 -180.58273438 294.550625 -181.34375 294.625 C-186.61310342 295.10707553 -191.87750791 295.51479383 -197.16796875 295.65625 C-198.04582031 295.68203125 -198.92367187 295.7078125 -199.828125 295.734375 C-202.10546875 295.40625 -202.10546875 295.40625 -203.9140625 294.015625 C-205.10546875 292.40625 -205.10546875 292.40625 -205.10546875 290.40625 C-219.35609194 289.47099509 -233.20426483 289.28637365 -247.42333984 290.81982422 C-255.05320391 291.58244919 -260.76077579 291.55190209 -267.41796875 287.28125 C-273.72206674 280.53733122 -273.63524999 273.36540593 -273.41015625 264.51171875 C-273.24897679 260.98161295 -272.89844539 257.52109168 -272.42578125 254.01953125 C-269.97484302 235.84398383 -269.90466052 218.04066268 -270.21679688 199.72460938 C-270.22948608 198.67116333 -270.24217529 197.61771729 -270.25524902 196.53234863 C-270.27989706 194.53043372 -270.31719659 192.52862384 -270.36877441 190.52722168 C-270.38345764 189.18536804 -270.38345764 189.18536804 -270.3984375 187.81640625 C-270.41414795 187.03402588 -270.4298584 186.25164551 -270.44604492 185.44555664 C-270.10546875 183.40625 -270.10546875 183.40625 -268.95652771 181.662323 C-266.33476564 179.88327403 -264.35340096 179.97337949 -261.19555664 179.89892578 C-259.95204941 179.86403046 -258.70854218 179.82913513 -257.42735291 179.79318237 C-256.04012109 179.77030998 -254.65287775 179.74812788 -253.265625 179.7265625 C-251.80117782 179.69389083 -250.33674618 179.66051579 -248.87232971 179.62649536 C-230.73806277 179.23960463 -212.59523677 179.25481979 -194.45776367 179.27587891 C-189.46317228 179.2816749 -184.46863349 179.27821501 -179.47404385 179.27230644 C-175.57320253 179.26869253 -171.67237375 179.26984156 -167.77153206 179.27243423 C-165.92765356 179.2730961 -164.08377389 179.27230129 -162.23989677 179.26995468 C-159.68260527 179.26740345 -157.12540031 179.27129896 -154.56811523 179.27685547 C-153.45472778 179.27381912 -153.45472778 179.27381912 -152.31884766 179.27072144 C-139.25369461 179.32307142 -139.25369461 179.32307142 -136.51953125 181.90234375 C-133.47485904 189.39344319 -132.19209955 196.68635502 -131.5546875 204.734375 C-131.46920654 205.80075195 -131.38372559 206.86712891 -131.2956543 207.96582031 C-131.23289307 208.77116211 -131.17013184 209.57650391 -131.10546875 210.40625 C-130.99066162 209.63885498 -130.87585449 208.87145996 -130.75756836 208.08081055 C-114.8924191 103.70564442 -114.8924191 103.70564442 -83.4375 79.1015625 C-79.05514596 76.35381649 -74.0294005 74.88007991 -69.10546875 73.40625 C-68.76823704 70.37771145 -68.76823704 70.37771145 -70.71484375 68.64453125 C-71.42125 68.00902344 -72.12765625 67.37351562 -72.85546875 66.71875 C-80.00329257 59.76035614 -82.50962725 52.35315508 -83.10546875 42.40625 C-82.41578723 28.22356856 -77.41594997 11.2973985 -67.10546875 1.15625 C-61.71256406 -3.348306 -55.7694465 -5.56665332 -49.10546875 -7.59375 C-48.30625 -7.83996094 -47.50703125 -8.08617188 -46.68359375 -8.33984375 C-30.24466391 -12.44957621 -13.5273459 -10.17883054 0 0 Z M-61.10546875 11.40625 C-64.34598698 15.66976737 -66.22128369 19.95738569 -67.79296875 25.03125 C-68.00501953 25.68609375 -68.21707031 26.3409375 -68.43554688 27.015625 C-71.1649866 35.52252231 -73.34179349 44.6418445 -69.23046875 53.09375 C-67.49091151 56.42659487 -67.49091151 56.42659487 -65.10546875 57.40625 C-65.03070313 56.436875 -64.9559375 55.4675 -64.87890625 54.46875 C-64.17829878 46.88424457 -62.93458578 39.92483643 -60.23046875 32.78125 C-59.98603027 32.1315625 -59.7415918 31.481875 -59.48974609 30.8125 C-56.40245883 23.07723055 -52.37827241 17.46575519 -45.10546875 13.40625 C-36.4365392 10.10828767 -28.00302421 8.34581737 -18.79296875 7.84375 C-18.05240234 7.80056641 -17.31183594 7.75738281 -16.54882812 7.71289062 C-14.73455411 7.60754568 -12.92003325 7.50646684 -11.10546875 7.40625 C-15.18221738 2.75641211 -20.91786423 1.78497529 -26.8671875 1.078125 C-38.33912933 0.63990621 -52.63846394 3.12331051 -61.10546875 11.40625 Z M-9.04296875 34.15625 C-9.67654297 34.40890625 -10.31011719 34.6615625 -10.96289062 34.921875 C-14.70787197 36.49705117 -17.08816858 37.8355584 -19.10546875 41.40625 C-20.55513401 45.75524578 -20.77030542 50.25928872 -21.1796875 54.80664062 C-21.73318065 60.10235051 -23.06527754 64.48414935 -25.10546875 69.40625 C-17.94230073 69.78847438 -12.92200236 69.76216749 -7.29296875 64.8125 C-0.37158136 57.77575615 1.02670211 50.03610422 1.14453125 40.40625 C1.09591905 37.03580439 0.9627759 34.61098395 -0.10546875 31.40625 C-3.33278247 31.40625 -6.10973045 32.92245108 -9.04296875 34.15625 Z M-57.10546875 77.40625 C-58.09546875 78.89125 -58.09546875 78.89125 -59.10546875 80.40625 C-57.65097474 81.4118261 -56.19174432 82.41055435 -54.73046875 83.40625 C-53.91835937 83.963125 -53.10625 84.52 -52.26953125 85.09375 C-50.24228688 86.57910844 -50.24228688 86.57910844 -48.10546875 86.40625 C-48.10546875 84.09625 -48.10546875 81.78625 -48.10546875 79.40625 C-52.56046875 78.41625 -52.56046875 78.41625 -57.10546875 77.40625 Z M92.89453125 187.40625 C93.25308891 191.17110548 93.78661776 193.24928493 95.95703125 196.40625 C98.13568038 199.7796422 98.35191221 201.47277375 97.89453125 205.40625 C96.89453125 206.40625 96.89453125 206.40625 93.51953125 206.59375 C89.89453125 206.40625 89.89453125 206.40625 86.89453125 204.40625 C86.67539062 205.4684375 86.45625 206.530625 86.23046875 207.625 C84.17989721 216.96906915 82.28122114 224.81512341 73.89453125 230.40625 C73.49353268 232.33624129 73.49353268 232.33624129 73.64233398 234.57373047 C73.66323593 235.43578094 73.68413788 236.29783142 73.70567322 237.18600464 C73.74608231 238.12235748 73.78649139 239.05871033 73.828125 240.0234375 C73.86253189 240.99096954 73.89693878 241.95850159 73.93238831 242.95535278 C74.0112415 245.01190102 74.09839865 247.06814474 74.19311523 249.12402344 C74.32992874 252.23346496 74.4213921 255.34198073 74.50976562 258.453125 C74.9196928 269.37781911 75.50575468 278.18567419 81.89453125 287.40625 C82.61640625 288.458125 83.33828125 289.51 84.08203125 290.59375 C87.54996885 294.0616876 91.31132071 297.05820655 95.125 300.13671875 C100.18459984 304.28287884 104.74009889 308.24790214 108 313.984375 C111.64285653 321.10710205 111.64285653 321.10710205 117.91015625 325.52734375 C120.66772012 325.75714074 123.15455772 325.76475121 125.89453125 325.40625 C125.42803498 320.62898263 123.51225224 318.41713028 120.26953125 314.96875 C119.79241699 314.45795898 119.31530273 313.94716797 118.82373047 313.42089844 C114.16606765 308.51638393 109.18990625 303.94259518 104.11083984 299.47875977 C87.83131077 284.82284817 82.08094674 255.70789862 80.71801758 234.68334961 C80.89453125 232.40625 80.89453125 232.40625 82.89453125 230.40625 C84.15011762 229.92674351 85.42387383 229.49366331 86.70703125 229.09375 C93.01182595 226.79073277 96.18912684 222.59120425 99.05224609 216.72241211 C100.54513667 212.61717938 100.43245707 208.60279996 100.33203125 204.28125 C100.33912109 203.41371094 100.34621094 202.54617187 100.35351562 201.65234375 C100.30283417 196.52961847 99.7990721 192.80536041 96.89453125 188.40625 C94.81762547 187.44580898 94.81762547 187.44580898 92.89453125 187.40625 Z M-232.10546875 191.40625 C-232.43546875 193.05625 -232.76546875 194.70625 -233.10546875 196.40625 C-236.29296875 197.28125 -236.29296875 197.28125 -240.10546875 197.40625 C-241.21267865 195.87569513 -242.31632857 194.34186501 -243.375 192.77734375 C-247.27646315 189.68611674 -253.49239716 191.1266699 -258.10546875 191.40625 C-258.10546875 198.99625 -258.10546875 206.58625 -258.10546875 214.40625 C-255.46546875 214.73625 -252.82546875 215.06625 -250.10546875 215.40625 C-247.16796875 217.03125 -247.16796875 217.03125 -245.10546875 219.40625 C-244.41090445 222.50507534 -244.10546875 225.24325524 -244.10546875 228.40625 C-247.07546875 228.40625 -250.04546875 228.40625 -253.10546875 228.40625 C-253.60046875 226.92125 -253.60046875 226.92125 -254.10546875 225.40625 C-256.12055233 224.67301204 -256.12055233 224.67301204 -258.10546875 224.40625 C-258.10546875 226.05625 -258.10546875 227.70625 -258.10546875 229.40625 C-257.09226562 229.87804687 -257.09226562 229.87804687 -256.05859375 230.359375 C-246.3717577 235.00681657 -246.3717577 235.00681657 -244.10546875 238.40625 C-243.85546875 241.65625 -243.85546875 241.65625 -244.10546875 244.40625 C-245.75546875 245.06625 -247.40546875 245.72625 -249.10546875 246.40625 C-248.73292969 246.92574219 -248.36039063 247.44523437 -247.9765625 247.98046875 C-244.12199561 253.66254147 -244.12199561 253.66254147 -244.04296875 257.21875 C-245.30644637 259.82002745 -246.66098446 260.90801769 -249.10546875 262.40625 C-248.30109375 262.798125 -247.49671875 263.19 -246.66796875 263.59375 C-244.10546875 265.40625 -244.10546875 265.40625 -243.16796875 267.90625 C-243.10546875 270.40625 -243.10546875 270.40625 -245.10546875 273.40625 C-249.73708858 273.98356239 -252.84296515 272.92454444 -256.98046875 270.90625 C-257.94726562 270.4421875 -258.9140625 269.978125 -259.91015625 269.5 C-260.63460938 269.1390625 -261.3590625 268.778125 -262.10546875 268.40625 C-262.25480789 273.69932048 -262.25480789 273.69932048 -260.10546875 278.40625 C-254.90680726 281.00558074 -247.07276455 279.5875507 -241.41796875 278.90625 C-228.64209683 277.4774404 -215.75857948 278.52417865 -203.00790405 279.68936157 C-190.94170508 280.77868078 -178.91476216 281.70384005 -166.79296875 281.71875 C-165.82359375 281.72390625 -164.85421875 281.7290625 -163.85546875 281.734375 C-154.23660384 281.75939619 -154.23660384 281.75939619 -145.51660156 278.28948975 C-143.39006108 275.45149639 -143.68937641 273.06898174 -143.64135742 269.55493164 C-143.62795319 268.86175842 -143.61454895 268.16858521 -143.60073853 267.45440674 C-143.56030256 265.15836985 -143.54137548 262.86272102 -143.5234375 260.56640625 C-143.50149414 258.96274975 -143.47855524 257.3591066 -143.45466614 255.75547791 C-143.40774577 252.38707041 -143.37113149 249.01875405 -143.34204102 245.65014648 C-143.30446655 241.36322321 -143.24448861 237.07698794 -143.17692089 232.79044437 C-143.12669995 229.47279309 -143.08727694 226.15507919 -143.0510807 222.83724785 C-143.0328709 221.25900045 -143.01175273 219.68078351 -142.98750877 218.10261726 C-142.85573404 209.0154887 -143.18903505 200.34034459 -145.10546875 191.40625 C-148.95635975 190.50494373 -152.52674316 190.27967944 -156.4777832 190.27685547 C-157.74713211 190.27370331 -159.01648102 190.27055115 -160.32429504 190.26730347 C-161.70578038 190.26909561 -163.0872654 190.27114714 -164.46875 190.2734375 C-165.90301022 190.27276261 -167.33727032 190.27179103 -168.77153015 190.27053833 C-171.78169847 190.26906488 -174.7918371 190.2712011 -177.80200195 190.27587891 C-181.61283705 190.28151937 -185.42360081 190.27833148 -189.23443317 190.27230644 C-192.20233163 190.26864251 -195.17021401 190.26986669 -198.13811302 190.27243423 C-199.53996985 190.27309048 -200.94182826 190.27232199 -202.34368324 190.26995468 C-212.30553118 190.25684454 -222.17543671 190.6840827 -232.10546875 191.40625 Z M11.20703125 205.78125 C-0.95524747 209.56067537 -13.24870692 210.71903248 -25.91796875 211.53125 C-27.83319336 211.66080078 -27.83319336 211.66080078 -29.78710938 211.79296875 C-32.89293439 212.00235021 -35.99899916 212.20670192 -39.10546875 212.40625 C-39.10546875 215.37625 -39.10546875 218.34625 -39.10546875 221.40625 C-32.64676725 224.39327491 -25.95260248 226.41609788 -19.15625 228.49609375 C-17.24709161 229.08580122 -15.33793361 229.67550996 -13.42879772 230.26529026 C-10.76580499 231.08691707 -8.10174392 231.9050498 -5.43768311 232.72320557 C-0.79672795 234.14910962 3.84273314 235.57986257 8.48188782 237.01161194 C10.94458325 237.77127478 13.40776047 238.52937819 15.87150574 239.28562927 C51.66045963 250.30786232 51.66045963 250.30786232 58.83203125 263.09375 C66.89457295 281.26863213 57.41083594 303.09587146 50.89453125 320.40625 C45.71447918 333.53679229 39.11687986 346.02017354 32.50341797 358.47192383 C31.92092285 359.57431396 31.33842773 360.6767041 30.73828125 361.8125 C29.95227539 363.28686523 29.95227539 363.28686523 29.15039062 364.79101562 C28.07371942 367.03310388 27.36870918 368.97788422 26.89453125 371.40625 C34.53796837 373.20329634 42.18288474 374.92658871 49.89453125 376.40625 C64.00635252 362.57190837 63.10748517 341.89696472 64.01953125 323.34375 C64.0615567 322.51519501 64.10358215 321.68664001 64.1468811 320.83297729 C69.95910143 264.56360884 69.95910143 264.56360884 54.20703125 213.78125 C52.24597521 211.96601607 51.29222264 211.43814675 48.60546875 211.22265625 C46.90020864 211.30448762 45.19566273 211.40257385 43.4921875 211.515625 C38.36261107 211.29964283 33.7966644 208.21116301 30.13671875 204.73828125 C24.30656953 201.2747257 17.20930507 203.90191009 11.20703125 205.78125 Z M-259.10546875 241.40625 C-259.10546875 242.06625 -259.10546875 242.72625 -259.10546875 243.40625 C-257.78546875 243.07625 -256.46546875 242.74625 -255.10546875 242.40625 C-256.42546875 242.07625 -257.74546875 241.74625 -259.10546875 241.40625 Z M-133.10546875 243.40625 C-133.43546875 255.94625 -133.76546875 268.48625 -134.10546875 281.40625 C-129.89613362 282.24811703 -126.53564008 282.51160527 -122.29296875 282.46875 C-120.55080078 282.45521484 -120.55080078 282.45521484 -118.7734375 282.44140625 C-117.45279297 282.42400391 -117.45279297 282.42400391 -116.10546875 282.40625 C-116.39421875 281.69339844 -116.68296875 280.98054688 -116.98046875 280.24609375 C-118.06777041 277.50141213 -119.09786924 274.74358458 -120.10546875 271.96875 C-120.45867187 271.00324219 -120.811875 270.03773438 -121.17578125 269.04296875 C-121.84501995 267.14491782 -122.43781699 265.21929201 -122.98046875 263.28125 C-124.08199224 260.46624552 -125.37349973 258.49114803 -127.10546875 256.03125 C-130.00970186 251.85907121 -131.1999795 248.38644089 -132.10546875 243.40625 C-132.43546875 243.40625 -132.76546875 243.40625 -133.10546875 243.40625 Z M-260.10546875 253.40625 C-260.43546875 255.38625 -260.76546875 257.36625 -261.10546875 259.40625 C-258.79546875 259.40625 -256.48546875 259.40625 -254.10546875 259.40625 C-255.15421873 256.78437506 -255.75478188 255.61253639 -258.23046875 254.15625 C-259.15859375 253.785 -259.15859375 253.785 -260.10546875 253.40625 Z M-51.10546875 293.40625 C-52.41685779 294.11510894 -53.74323892 294.80081452 -55.10546875 295.40625 C-54.32042969 296.14488281 -53.53539062 296.88351562 -52.7265625 297.64453125 C-36.20904167 313.47020497 -27.92648745 332.39124192 -27.10546875 355.40625 C-27.03026991 359.17714306 -26.99615294 362.94716411 -26.98046875 366.71875 C-26.97571533 367.67458984 -26.97096191 368.63042969 -26.96606445 369.61523438 C-26.97723494 374.32504354 -27.12802057 378.77500745 -28.10546875 383.40625 C-24.14546875 383.40625 -20.18546875 383.40625 -16.10546875 383.40625 C-16.06679688 381.44558594 -16.06679688 381.44558594 -16.02734375 379.4453125 C-15.21427395 350.58541355 -5.20186207 327.09619661 7.765625 301.7265625 C9.83466258 297.47393855 10.23725086 294.11864466 9.89453125 289.40625 C3.43323415 285.0987186 -4.89003292 286.1866852 -12.40600586 286.16601562 C-14.50611678 286.15641841 -16.60520072 286.12539775 -18.70507812 286.09375 C-36.11079195 285.88972163 -36.11079195 285.88972163 -51.10546875 293.40625 Z M-74.10546875 296.40625 C-72.78619324 300.06392391 -71.0555236 303.322753 -69.0847168 306.66967773 C-55.3062558 330.12967713 -47.14649794 356.23842796 -54.10546875 383.40625 C-49.48349569 385.62479707 -46.33722712 386.78906159 -41.10546875 386.40625 C-40.63109375 385.354375 -40.15671875 384.3025 -39.66796875 383.21875 C-39.40113281 382.62707031 -39.13429687 382.03539062 -38.859375 381.42578125 C-33.2121486 366.29823695 -37.26672006 342.07610609 -43.10546875 327.40625 C-49.14407495 315.51774404 -59.37024076 304.3520093 -70.10546875 296.40625 C-71.42546875 296.40625 -72.74546875 296.40625 -74.10546875 296.40625 Z M178.89453125 367.40625 C179.15669434 367.94515869 179.41885742 368.48406738 179.68896484 369.03930664 C180.88829301 371.51302045 182.07895317 373.99081373 183.26953125 376.46875 C183.68203125 377.31630859 184.09453125 378.16386719 184.51953125 379.03710938 C190.52130962 391.57308194 192.17502502 404.67755735 188.33203125 418.21875 C182.70223883 433.84831357 173.40105819 447.85906776 158.08642578 455.28271484 C154.07242372 457.11627134 150.0013723 458.79073472 145.89453125 460.40625 C145.89453125 460.73625 145.89453125 461.06625 145.89453125 461.40625 C164.204156 460.80691695 178.89441954 455.34048276 191.89453125 442.40625 C192.53390625 441.80167969 193.17328125 441.19710937 193.83203125 440.57421875 C201.28113398 432.94221394 206.80618778 420.9928638 207.89453125 410.40625 C207.97574219 409.64441406 208.05695313 408.88257813 208.140625 408.09765625 C208.80673132 395.48200618 202.99586943 382.55633737 195.20703125 372.84375 C191.60993846 369.05221976 189.30225594 368.14091292 184.20703125 367.78125 C183.21316406 367.70648438 182.21929687 367.63171875 181.1953125 367.5546875 C180.43605469 367.50570313 179.67679687 367.45671875 178.89453125 367.40625 Z M-89.10546875 412.40625 C-89.43546875 413.56125 -89.76546875 414.71625 -90.10546875 415.90625 C-96.2562338 434.18528417 -106.22837273 449.01514476 -123.79296875 457.90625 C-124.88609375 458.40125 -125.97921875 458.89625 -127.10546875 459.40625 C-127.10546875 459.73625 -127.10546875 460.06625 -127.10546875 460.40625 C-115.16028266 461.5174301 -102.67394779 455.51828214 -93.4453125 448.3359375 C-82.33561931 438.71759076 -75.11234519 427.89392737 -72.10546875 413.40625 C-77.77189426 412.18107692 -83.34255393 412.31396133 -89.10546875 412.40625 Z " fill="#020101" transform="translate(283.10546875,24.59375)"/>
<path d="M0 0 C14.00478634 -0.29490925 27.99459645 -0.24928836 42 0 C43.14712463 0.018349 44.29424927 0.036698 45.47613525 0.05560303 C52.65093983 0.18289934 59.81120625 0.41934116 66.97817993 0.7791748 C69.31314044 0.88414413 71.64957113 0.96056327 73.98641968 1.00744629 C91.96042053 1.40518007 91.96042053 1.40518007 96.94610596 5.66134644 C100.25406819 9.69090841 102.35402889 14.1445863 104.2220459 18.98446655 C105.17437129 21.45176336 106.36705723 23.7604712 107.5859375 26.10546875 C108.19542659 27.46031319 108.79245887 28.82085218 109.375 30.1875 C109.69605713 30.92452148 110.01711426 31.66154297 110.34790039 32.42089844 C115.61427499 44.82464933 118.17887932 56.85561332 118.1875 70.3125 C118.19974609 71.30701172 118.21199219 72.30152344 118.22460938 73.32617188 C118.23683912 79.53480653 117.57521732 84.99176003 116 91 C119.96 91.99 123.92 92.98 128 94 C128.33 95.98 128.66 97.96 129 100 C129.79172607 100.03440186 130.58345215 100.06880371 131.39916992 100.10424805 C134.99691025 100.27431346 138.59170311 100.48050813 142.1875 100.6875 C143.43337891 100.74099609 144.67925781 100.79449219 145.96289062 100.84960938 C156.26474686 101.48484448 156.26474686 101.48484448 159.23828125 104.51953125 C159.81964844 105.33808594 160.40101563 106.15664063 161 107 C163.65223421 108.3261171 165.92232966 108.31958711 168.8828125 108.53515625 C170.04941406 108.62216797 171.21601563 108.70917969 172.41796875 108.79882812 C173.64128906 108.88583984 174.86460937 108.97285156 176.125 109.0625 C177.35605469 109.15337891 178.58710938 109.24425781 179.85546875 109.33789062 C182.90339115 109.56235003 185.95154703 109.78288542 189 110 C189 110.33 189 110.66 189 111 C188.03352822 110.99723462 187.06705645 110.99446924 186.07129765 110.99162006 C162.44562933 110.92472362 138.81997343 110.87558243 115.19423008 110.84456348 C103.76853104 110.82916041 92.34289494 110.80819793 80.91723633 110.77368164 C70.94700366 110.74357673 60.97681663 110.72437748 51.00653976 110.71773452 C45.73792516 110.71385761 40.46944098 110.70488695 35.20086861 110.68280983 C14.68975813 110.60009711 -5.41625727 110.54072966 -25.73484993 113.69633293 C-31.13534054 114.42032521 -36.56076868 114.364661 -42 114.25 C-43.07121094 114.24484375 -44.14242187 114.2396875 -45.24609375 114.234375 C-52.84304617 114.15695383 -52.84304617 114.15695383 -54 113 C-54.14193337 109.99668982 -54.04236378 107.00782866 -54 104 C-49.71 104 -45.42 104 -41 104 C-40.95758277 101.66705225 -40.95907063 99.33297433 -41 97 C-42.56305491 95.43694509 -44.27678218 95.69360032 -46.4375 95.5 C-50.78082192 95.10958904 -50.78082192 95.10958904 -53 94 C-52.67 92.68 -52.34 91.36 -52 90 C-50.329375 90.2784375 -50.329375 90.2784375 -48.625 90.5625 C-45.17431139 91.31680657 -45.17431139 91.31680657 -43 90 C-42.83318891 87.08347826 -42.83318891 87.08347826 -43 84 C-45.6855594 81.3144406 -48.37621328 80.93950026 -52 80 C-51.34 77.69 -50.68 75.38 -50 73 C-48.989375 73.350625 -47.97875 73.70125 -46.9375 74.0625 C-43.07662622 75.1892448 -39.94605414 74.80531717 -36 74 C-36 72.02 -36 70.04 -36 68 C-38.97 66.68 -41.94 65.36 -45 64 C-43.125 59.25 -43.125 59.25 -42 57 C-39.0280615 58.12451727 -36.66559313 59.22293791 -34 61 C-31.41619823 61.25030977 -31.41619823 61.25030977 -29 61 C-27.71643292 59.9001201 -27.71643292 59.9001201 -27.4375 57.25 C-27.63698637 53.96837533 -27.63698637 53.96837533 -29.78515625 52.5625 C-31.25037495 51.69422225 -32.73943869 50.86487568 -34.25 50.078125 C-34.8275 49.72234375 -35.405 49.3665625 -36 49 C-36 48.34 -36 47.68 -36 47 C-35.319375 47.309375 -34.63875 47.61875 -33.9375 47.9375 C-30.58769363 49.14913209 -27.55074833 49.73201899 -24 50 C-23.34 49.34 -22.68 48.68 -22 48 C-21.93453102 45.48952515 -21.93453102 45.48952515 -23 43 C-25.46115547 41.15565651 -25.46115547 41.15565651 -28 40 C-27.75 38.125 -27.75 38.125 -27 36 C-24.9375 34.75 -24.9375 34.75 -23 34 C-22.62875 34.495 -22.2575 34.99 -21.875 35.5 C-19.23298326 37.61361339 -17.28862853 37.2859677 -14 37 C-12.67254834 35.88741409 -12.67254834 35.88741409 -12.75 33.0625 C-12.8325 32.051875 -12.915 31.04125 -13 30 C-13.99 29.34 -14.98 28.68 -16 28 C-15.505 26.515 -15.505 26.515 -15 25 C-14.48050781 25.22816406 -13.96101563 25.45632813 -13.42578125 25.69140625 C-7.85214647 28.00257511 -7.85214647 28.00257511 -2 27 C-0.75655686 25.95857126 -0.75655686 25.95857126 -0.6875 23.6875 C-1.08919519 20.23292134 -2.39899673 19.19459651 -5 17 C-3.99088542 15.20963542 -2.98177083 13.41927083 -1.97265625 11.62890625 C-0.56969663 7.8369712 -0.32436885 4.01101845 0 0 Z " fill="#FA6028" transform="translate(114,317)"/>
<path d="M0 0 C4.25853084 1.35665939 7.70709796 3.25347009 11.4921875 5.58984375 C17.23077857 9.00280225 21.99259298 11.01017228 28.6171875 12.15234375 C30.64839457 15.19915436 30.86378625 15.75352699 30.8125 19.1640625 C30.80605469 19.92138672 30.79960937 20.67871094 30.79296875 21.45898438 C30.76783203 22.63750977 30.76783203 22.63750977 30.7421875 23.83984375 C30.73316406 24.63712891 30.72414063 25.43441406 30.71484375 26.25585938 C30.69130335 28.22148275 30.65543297 30.1869515 30.6171875 32.15234375 C25.6671875 32.64734375 25.6671875 32.64734375 20.6171875 33.15234375 C20.28270491 35.98451175 20.28270491 35.98451175 20.6171875 39.15234375 C22.49220681 41.52954068 22.49220681 41.52954068 24.6171875 43.15234375 C23.4828125 43.54421875 22.3484375 43.93609375 21.1796875 44.33984375 C17.46026989 45.74661851 17.46026989 45.74661851 16.5546875 48.71484375 C16.34191428 51.33623684 16.34191428 51.33623684 18.6171875 53.15234375 C21.29532149 53.17441863 21.29532149 53.17441863 24.2421875 52.77734375 C25.24507813 52.66648438 26.24796875 52.555625 27.28125 52.44140625 C28.05210937 52.34601563 28.82296875 52.250625 29.6171875 52.15234375 C29.16455087 60.97875794 28.47198104 69.49063801 26.6171875 78.15234375 C24.2421875 78.33984375 24.2421875 78.33984375 21.6171875 78.15234375 C19.17390303 74.48741705 19.6171875 72.46191289 19.6171875 68.15234375 C17.78803109 65.9138936 17.78803109 65.9138936 15.1171875 65.83984375 C14.2921875 65.94296875 13.4671875 66.04609375 12.6171875 66.15234375 C10.13046677 69.88242485 10.09998296 72.83409631 10.6171875 77.15234375 C12.06011734 81.24064497 13.29965598 82.90466917 16.7421875 85.58984375 C20.29486228 88.75635823 20.26856572 90.53310519 20.6171875 95.15234375 C22.45602631 97.43963109 22.45602631 97.43963109 25.2421875 97.27734375 C26.0259375 97.23609375 26.8096875 97.19484375 27.6171875 97.15234375 C28.6071875 94.51234375 29.5971875 91.87234375 30.6171875 89.15234375 C32.5971875 89.15234375 34.5771875 89.15234375 36.6171875 89.15234375 C36.52179688 89.77882813 36.42640625 90.4053125 36.328125 91.05078125 C36.21726562 91.86804688 36.10640625 92.6853125 35.9921875 93.52734375 C35.81816406 94.74550781 35.81816406 94.74550781 35.640625 95.98828125 C35.63289063 96.70242187 35.62515625 97.4165625 35.6171875 98.15234375 C37.49271019 100.47880311 37.49271019 100.47880311 40.5546875 100.27734375 C43.68192433 99.5018813 43.68192433 99.5018813 44.67578125 97.296875 C45.42762782 95.26437111 46.0726453 93.24930888 46.6171875 91.15234375 C47.2771875 91.15234375 47.9371875 91.15234375 48.6171875 91.15234375 C48.60558594 91.79042969 48.59398437 92.42851562 48.58203125 93.0859375 C48.57300781 93.91222656 48.56398438 94.73851562 48.5546875 95.58984375 C48.54308594 96.41355469 48.53148437 97.23726563 48.51953125 98.0859375 C48.38451402 100.14398313 48.38451402 100.14398313 49.6171875 101.15234375 C52.07528748 101.40242105 52.07528748 101.40242105 54.6171875 101.15234375 C57.1826469 98.58688435 57.15764837 96.67547707 57.6171875 93.15234375 C63.0786305 93.48671781 67.48523513 94.7923981 72.6171875 96.71484375 C84.03330453 100.777038 94.56762635 100.44964247 105.91015625 96.04296875 C109.94659747 94.71496212 113.40437637 94.87148967 117.6171875 95.15234375 C118.6071875 98.61734375 118.6071875 98.61734375 119.6171875 102.15234375 C128.1018658 102.38444741 135.98564182 102.01414136 144.36328125 100.58984375 C147.81738193 100.12542685 151.13619064 100.08193168 154.6171875 100.15234375 C154.73835937 100.88839844 154.85953125 101.62445313 154.984375 102.3828125 C155.23574219 103.84654297 155.23574219 103.84654297 155.4921875 105.33984375 C155.65460938 106.30277344 155.81703125 107.26570313 155.984375 108.2578125 C156.51893684 111.14265958 156.51893684 111.14265958 157.6953125 113.65625 C159.94233525 119.74034974 158.30439159 127.18201686 155.8671875 133.02734375 C153.90458104 136.93833489 151.71452785 140.0550034 148.6171875 143.15234375 C146.4609375 143.80859375 146.4609375 143.80859375 144.6171875 144.15234375 C144.41416016 143.27835937 144.41416016 143.27835937 144.20703125 142.38671875 C142.01314877 134.03157351 138.37737401 124.66853371 131.3046875 119.27734375 C128.16502817 116.79482242 127.50993194 114.99114485 126.6171875 111.15234375 C124.67999372 111.09828253 122.74236829 111.0595235 120.8046875 111.02734375 C119.72574219 111.00414062 118.64679688 110.9809375 117.53515625 110.95703125 C114.42315882 110.92210658 114.42315882 110.92210658 111.6171875 113.15234375 C110.80314453 112.62833984 110.80314453 112.62833984 109.97265625 112.09375 C109.25722656 111.63871094 108.54179687 111.18367188 107.8046875 110.71484375 C107.09699219 110.26238281 106.38929688 109.80992187 105.66015625 109.34375 C100.23157574 106.17794301 93.73498841 106.14960158 87.71630859 107.61523438 C84.96561936 108.42097141 82.24981141 109.31600012 79.53149414 110.22412109 C64.8917743 115.11156469 49.74941027 115.33917367 34.453125 115.33764648 C31.98941081 115.33984623 29.52613628 115.35811125 27.0625 115.37695312 C19.03577592 115.40543139 11.41518591 115.31024323 3.6171875 113.15234375 C2.93446777 112.99523926 2.25174805 112.83813477 1.54833984 112.67626953 C-0.3828125 112.08984375 -0.3828125 112.08984375 -3.3828125 110.15234375 C-8.94833686 91.07340594 -13.69893195 58.45717909 -4.3828125 40.15234375 C-2.85007667 37.86409507 -1.34028677 36.10981802 0.6171875 34.15234375 C3.48443436 34.72579312 4.478639 35.01379525 6.6171875 37.15234375 C9.92402216 36.86251106 9.92402216 36.86251106 12.6171875 35.15234375 C13.03499629 32.77928797 13.03499629 32.77928797 12.6171875 30.15234375 C10.3694021 27.36198946 9.03988734 26.2932437 5.6171875 25.15234375 C1.60374507 24.77371711 -0.79995672 24.86686337 -4.4453125 26.65234375 C-12.5369914 33.53887898 -16.58887949 41.9319 -17.61035156 52.50830078 C-18.43924588 66.14335161 -17.01886497 79.73334423 -15.5703125 93.27734375 C-15.4878125 94.07141632 -15.4053125 94.86548889 -15.3203125 95.68362427 C-15.07794067 97.96932199 -14.81776327 100.25221538 -14.55078125 102.53515625 C-14.47872971 103.2155043 -14.40667816 103.89585236 -14.33244324 104.59681702 C-13.65620542 110.05036297 -12.11339417 114.31687834 -8.3203125 118.33984375 C0.60553031 123.84727868 11.42152366 124.14697087 21.6171875 125.15234375 C21.6171875 127.46234375 21.6171875 129.77234375 21.6171875 132.15234375 C20.75351563 131.99507812 19.88984375 131.8378125 19 131.67578125 C8.22367093 130.00831232 0.31809722 131.31363333 -9.3828125 136.15234375 C-10.66572683 136.75331249 -11.94963364 137.35216578 -13.234375 137.94921875 C-26.62132685 144.27683409 -37.94512912 151.47107672 -47.3828125 163.15234375 C-51.65649573 158.87866052 -50.68959105 152.49915429 -50.69970703 146.80273438 C-50.03180898 101.64952787 -35.46201043 56.27482521 -15.0703125 16.40234375 C-14.59110352 15.45593018 -14.11189453 14.5095166 -13.61816406 13.53442383 C-6.64661066 0.29932773 -6.64661066 0.29932773 0 0 Z " fill="#F3C749" transform="translate(211.3828125,110.84765625)"/>
<path d="M0 0 C1.60344516 0.54639278 3.20761165 1.09067339 4.8125 1.6328125 C7.91742602 2.68328262 11.01904701 3.74275911 14.11889648 4.80810547 C19.82971456 6.75813313 25.59392185 8.5210436 31.375 10.25 C33.26436978 10.82015723 35.15369382 11.39046606 37.04296875 11.9609375 C38.39902222 12.36904663 38.39902222 12.36904663 39.7824707 12.78540039 C44.65205039 14.25606734 49.51384445 15.75176693 54.375 17.25 C55.24543945 17.51603027 56.11587891 17.78206055 57.01269531 18.05615234 C81.06370501 25.45972147 81.06370501 25.45972147 87.375 36.25 C90.45069143 45.47707429 87.80653233 54.90608446 84.875 63.8125 C84.33359375 65.50705322 84.33359375 65.50705322 83.78125 67.23583984 C78.67059041 82.89832568 71.96444812 97.65437649 64.375 112.25 C63.78356201 113.40169678 63.78356201 113.40169678 63.18017578 114.57666016 C61.96067832 116.95076263 60.73207561 119.3199041 59.5 121.6875 C59.11851807 122.42822754 58.73703613 123.16895508 58.34399414 123.93212891 C55.60626543 129.13436729 55.60626543 129.13436729 53.375 130.25 C51.78052536 130.33400529 50.18259455 130.35727467 48.5859375 130.34765625 C47.64492188 130.34443359 46.70390625 130.34121094 45.734375 130.33789062 C44.74953125 130.32951172 43.7646875 130.32113281 42.75 130.3125 C41.75742187 130.30798828 40.76484375 130.30347656 39.7421875 130.29882812 C37.2863984 130.28702145 34.83072896 130.270554 32.375 130.25 C31.75996535 112.83683144 41.47928095 95.1893022 49.6875 80.25 C54.27721882 71.84996928 58.12810479 63.04676208 56.375 53.25 C55.3770588 51.91512505 54.37710845 50.58174939 53.375 49.25 C53.1171875 47.14453125 53.1171875 47.14453125 53.25 45.0625 C53.29125 43.804375 53.3325 42.54625 53.375 41.25 C52.2915967 39.95373921 52.2915967 39.95373921 49.6875 40 C46.32693002 40.03457276 46.32693002 40.03457276 43.5 41.75 C39.46484837 43.68687278 36.80756494 43.4792706 32.375 43.25 C32.87 42.26 32.87 42.26 33.375 41.25 C33.54170273 38.20826106 33.54170273 38.20826106 33.375 35.25 C33.045 34.92 32.715 34.59 32.375 34.25 C26.24716575 34.49030723 23.60764146 36.11813571 19.375 40.25 C18.88 41.24 18.88 41.24 18.375 42.25 C15.405 42.25 12.435 42.25 9.375 42.25 C9.395625 41.280625 9.41625 40.31125 9.4375 39.3125 C9.73118499 36.37534105 9.73118499 36.37534105 8.375 35.25 C5.6357041 34.41060731 5.6357041 34.41060731 2.375 35.25 C0.39907053 37.40398025 -1.20373544 39.64952836 -2.81640625 42.0859375 C-4.93256226 44.61801187 -6.45270879 45.41808793 -9.625 46.25 C-11.11 45.755 -11.11 45.755 -12.625 45.25 C-12.109375 44.693125 -11.59375 44.13625 -11.0625 43.5625 C-9.33023302 41.30914993 -9.33023302 41.30914993 -9.9375 38.5 C-10.164375 37.7575 -10.39125 37.015 -10.625 36.25 C-12.864835 35.29979584 -12.864835 35.29979584 -15.625 35.25 C-19.26242285 37.89539843 -20.46421063 39.52026361 -21.4375 43.9375 C-21.53763797 45.7066041 -21.625 47.47806407 -21.625 49.25 C-26.46741633 50.58583899 -30.55937617 51.50328119 -35.625 51.25 C-34.66571346 48.5935142 -33.86228879 46.52379476 -32 44.375 C-30.03462817 41.33760717 -30.42123695 38.78189293 -30.625 35.25 C-33.265 35.25 -35.905 35.25 -38.625 35.25 C-38.893125 35.806875 -39.16125 36.36375 -39.4375 36.9375 C-40.625 39.25 -40.625 39.25 -42.25 41.625 C-43.88723069 44.75062223 -43.93462042 46.76677032 -43.625 50.25 C-43.295 50.91 -42.965 51.57 -42.625 52.25 C-46.585 52.25 -50.545 52.25 -54.625 52.25 C-52.625 47.25 -52.625 47.25 -50.625 44.25 C-50.90774138 40.93913741 -50.90774138 40.93913741 -52.625 38.25 C-55.02684637 37.7909266 -55.02684637 37.7909266 -57.625 38.25 C-59.52942291 40.19955364 -59.52942291 40.19955364 -60.9375 42.75 C-61.44925781 43.5853125 -61.96101562 44.420625 -62.48828125 45.28125 C-62.86339844 45.9309375 -63.23851562 46.580625 -63.625 47.25 C-64.945 46.59 -66.265 45.93 -67.625 45.25 C-65.97794118 40.56221719 -65.97794118 40.56221719 -64 38.8125 C-62.30748668 37.20354163 -62.30748668 37.20354163 -62.375 34.125 C-62.30531822 31.35528442 -62.30531822 31.35528442 -63.625 30.25 C-67.64136782 30.47734157 -69.94792551 30.67709081 -73.0625 33.3125 C-73.578125 33.951875 -74.09375 34.59125 -74.625 35.25 C-76.17944374 30.58666879 -76.60391147 26.60355311 -74.70703125 22.04296875 C-67.68979322 10.29269627 -54.44094592 4.16464864 -42.625 -1.75 C-41.82449219 -2.20761719 -41.02398437 -2.66523438 -40.19921875 -3.13671875 C-27.32162341 -10.04842247 -12.67286889 -4.45123559 0 0 Z " fill="#123BD7" transform="translate(246.625,257.75)"/>
<path d="M0 0 C15.08265757 -1.51162492 15.08265757 -1.51162492 19.2890625 1.8046875 C20.88680466 4.4789832 21.9590701 7.06404388 23 10 C23.46535156 11.05445313 23.93070312 12.10890625 24.41015625 13.1953125 C30.17334424 26.26281954 31.22998915 40.30717291 26.31640625 53.91796875 C18.16798518 72.99542936 6.23239728 84.68799068 -12.60546875 92.93359375 C-17.07292722 94.33706459 -21.04303728 94.8028565 -25.4375 93 C-25.953125 92.67 -26.46875 92.34 -27 92 C-26.030625 91.62875 -25.06125 91.2575 -24.0625 90.875 C-20.72784137 89.28855632 -20.72784137 89.28855632 -20 85.9375 C-20 84.968125 -20 83.99875 -20 83 C-20.99 82.01 -20.99 82.01 -22 81 C-27.14650136 81.24507149 -31.68515792 83.2710426 -36 86 C-36.33 86.66 -36.66 87.32 -37 88 C-39.16874252 87.49396008 -40.99967627 87.00016187 -43 86 C-43 85.34 -43 84.68 -43 84 C-41.82630859 83.58427734 -41.82630859 83.58427734 -40.62890625 83.16015625 C-39.11103516 82.61681641 -39.11103516 82.61681641 -37.5625 82.0625 C-36.55316406 81.70285156 -35.54382813 81.34320313 -34.50390625 80.97265625 C-32.09686255 80.23122361 -32.09686255 80.23122361 -31 79 C-30.95919217 77.00041636 -30.95745644 74.99954746 -31 73 C-36.44467537 71.28062883 -39.85935575 72.86895446 -44.828125 75.08984375 C-47 76 -47 76 -49 76 C-49 76.66 -49 77.32 -49 78 C-49.99 77.67 -50.98 77.34 -52 77 C-49.33333333 75 -46.66666667 73 -44 71 C-44.37904208 67.70924004 -44.37904208 67.70924004 -46 65 C-48.34087842 65.27539746 -50.67402489 65.6186926 -53 66 C-54.134375 66.185625 -55.26875 66.37125 -56.4375 66.5625 C-57.7059375 66.7790625 -57.7059375 66.7790625 -59 67 C-61 64 -61 64 -61 61 C-59.0509375 61.0309375 -59.0509375 61.0309375 -57.0625 61.0625 C-55.70834367 61.08399454 -54.35243917 61.07148199 -53 61 C-52.505 60.505 -52.505 60.505 -52 60 C-52 58.02 -52 56.04 -52 54 C-55.96 52.68 -59.92 51.36 -64 50 C-64 47.69 -64 45.38 -64 43 C-63.443125 43.495 -62.88625 43.99 -62.3125 44.5 C-59.60483847 46.25632099 -58.16620913 46.34229288 -55 46 C-53.7333045 44.92597695 -53.7333045 44.92597695 -53.5625 42.4375 C-54.03946279 38.68993519 -54.74408648 37.77111652 -57.0625 34.9375 C-59.97890512 31.30235997 -59.97890512 31.30235997 -60.1875 28.3125 C-58.62394457 25.26768153 -56.53282222 23.27304558 -54 21 C-52.68 24.63 -51.36 28.26 -50 32 C-48.00045254 32.04254356 -45.99958364 32.04080783 -44 32 C-42.58036958 30.7995888 -42.58036958 30.7995888 -42.75 27.3125 C-42.77928489 23.23457916 -43.96893936 20.55435613 -46 17 C-46 16.34 -46 15.68 -46 15 C-44.1875 15.1875 -44.1875 15.1875 -42 16 C-41.54625 16.845625 -41.0925 17.69125 -40.625 18.5625 C-40.08875 19.366875 -39.5525 20.17125 -39 21 C-35.87364791 21.41746608 -35.87364791 21.41746608 -33 21 C-32.31506627 18.14221967 -32.31506627 18.14221967 -32 15 C-32.66 14.01 -33.32 13.02 -34 12 C-33.625 9.8125 -33.625 9.8125 -33 8 C-31.02 7.67 -29.04 7.34 -27 7 C-26.34 9.31 -25.68 11.62 -25 14 C-23.00045254 14.04254356 -20.99958364 14.04080783 -19 14 C-17.74050951 12.96593327 -17.74050951 12.96593327 -17.90234375 10.71484375 C-17.91394531 9.79832031 -17.92554688 8.88179688 -17.9375 7.9375 C-17.94652344 7.01839844 -17.95554687 6.09929687 -17.96484375 5.15234375 C-17.97644531 4.44207031 -17.98804688 3.73179687 -18 3 C-15.36 2.67 -12.72 2.34 -10 2 C-9.01 4.64 -8.02 7.28 -7 10 C-5.00045254 10.04254356 -2.99958364 10.04080783 -1 10 C0.23267348 8.99163938 0.23267348 8.99163938 0.09765625 6.93359375 C0.08605469 6.10988281 0.07445312 5.28617187 0.0625 4.4375 C0.05347656 3.61121094 0.04445313 2.78492188 0.03515625 1.93359375 C0.02355469 1.29550781 0.01195312 0.65742188 0 0 Z " fill="#777676" transform="translate(445,392)"/>
<path d="M0 0 C3.09261221 3.09261221 4.50521043 7.03323141 6.3671875 10.95703125 C9.16622689 16.17342284 12.54424976 19.63188293 17.1875 23.25 C24.90491625 29.48961314 31.13006252 35.17993331 35.9375 43.9375 C38.49438712 48.49579214 38.49438712 48.49579214 42.72265625 51.2734375 C45.20205996 51.75467198 47.47785459 52.02584165 50 52 C46.78780143 54.5294124 43.4006305 56.56059467 39.875 58.625 C33.56989429 62.42208069 28.28939166 66.87252849 23 72 C22.22140625 72.69351563 21.4428125 73.38703125 20.640625 74.1015625 C15.99461647 78.27514451 15.99461647 78.27514451 14 84 C14 84.99 14 85.98 14 87 C14.83144531 87.29003906 14.83144531 87.29003906 15.6796875 87.5859375 C16.40414062 87.84632813 17.12859375 88.10671875 17.875 88.375 C18.59429687 88.63023437 19.31359375 88.88546875 20.0546875 89.1484375 C22 90 22 90 24 92 C26.54190002 92.2500773 26.54190002 92.2500773 29 92 C30.33901792 90.88873341 30.33901792 90.88873341 30.09765625 88.05859375 C30.08605469 86.86363281 30.07445312 85.66867187 30.0625 84.4375 C30.05347656 83.23996094 30.04445313 82.04242188 30.03515625 80.80859375 C30.02355469 79.88175781 30.01195312 78.95492187 30 78 C31.98 77.01 31.98 77.01 34 76 C34.33 77.65 34.66 79.3 35 81 C37.34533951 81.76956136 37.34533951 81.76956136 40 82 C41.77989994 80.930212 41.77989994 80.930212 43 79 C43.36270484 76.25756437 43.36270484 76.25756437 43.1875 73.3125 C43.16042969 72.31863281 43.13335937 71.32476562 43.10546875 70.30078125 C43.07066406 69.54152344 43.03585937 68.78226562 43 68 C44.32 67.34 45.64 66.68 47 66 C47.66 67.65 48.32 69.3 49 71 C51.31 71 53.62 71 56 71 C56.06058594 70.28972656 56.12117188 69.57945312 56.18359375 68.84765625 C56.30927734 67.46900391 56.30927734 67.46900391 56.4375 66.0625 C56.55931641 64.68771484 56.55931641 64.68771484 56.68359375 63.28515625 C57 61 57 61 58 60 C61.3125 59.5625 61.3125 59.5625 65 60 C67.3125 62.875 67.3125 62.875 69 66 C70.95633975 68.41121859 70.95633975 68.41121859 74.625 68.125 C75.73875 68.08375 76.8525 68.0425 78 68 C78.20970559 63.85906302 78.20970559 63.85906302 77 60 C92.92142661 60.56862238 111.91250943 69.56239319 123.42578125 80.203125 C125 82 125 82 126 85 C124.71013184 84.98428955 123.42026367 84.9685791 122.09130859 84.95239258 C117.24192714 84.89752009 112.3925723 84.86344423 107.54296875 84.83520508 C105.45600753 84.82024766 103.36907702 84.79987435 101.28222656 84.77368164 C89.42462769 84.62873017 78.48324205 84.73362078 67 88 C65.89180908 88.29011963 64.78361816 88.58023926 63.6418457 88.87915039 C40.15259571 95.17298439 20.2766415 110.45756816 5 129 C4.67 129.66 4.34 130.32 4 131 C-4.58 131 -13.16 131 -22 131 C-21.505 130.01 -21.505 130.01 -21 129 C-20.34 129 -19.68 129 -19 129 C-16.9466099 124.81424325 -16.94736719 121.73510642 -17.25 117.125 C-17.3770465 109.50221022 -17.3770465 109.50221022 -14.25 106.125 C-13.7034375 105.61453125 -13.156875 105.1040625 -12.59375 104.578125 C-9.87324128 101.88428794 -8.50024735 98.47784613 -7 95 C-6.51116333 93.88999634 -6.51116333 93.88999634 -6.01245117 92.75756836 C-2.93467722 84.37477192 -2.60992373 74.67527718 -1.9375 65.8125 C-1.85516113 64.73186279 -1.77282227 63.65122559 -1.68798828 62.5378418 C-0.2878347 41.7393228 -0.29747834 20.83700561 0 0 Z " fill="#F86028" transform="translate(358,298)"/>
<path d="M0 0 C3.98806501 1.89879513 7.44382664 4.39500742 11 7 C12.0415625 7.73347656 13.083125 8.46695313 14.15625 9.22265625 C22.04048685 14.91140636 29.16972564 20.34376984 32 30 C32.34979351 34.68057036 31.68402736 38.67192486 28.875 42.5 C20.70755478 50.85872029 8.43462445 55.92083377 -1.75 61.3125 C-2.69544678 61.81612061 -3.64089355 62.31974121 -4.61499023 62.83862305 C-22.80068868 72.31188981 -22.80068868 72.31188981 -31 71 C-33.75329021 69.20437595 -35.52627461 67.94745078 -37 65 C-38.3409998 53.44024221 -35.37548371 44.49295259 -31 34 C-30.68434082 33.23010742 -30.36868164 32.46021484 -30.04345703 31.66699219 C-15.78629996 -2.80383537 -15.78629996 -2.80383537 0 0 Z " fill="#020100" transform="translate(87,221)"/>
<path d="M0 0 C0.19480957 0.61633301 0.38961914 1.23266602 0.59033203 1.86767578 C0.98260986 3.08173096 0.98260986 3.08173096 1.3828125 4.3203125 C1.63949707 5.12227051 1.89618164 5.92422852 2.16064453 6.75048828 C4.05455546 11.82625772 7.25169867 14.6358108 12 17 C19.2042338 17.8779353 27.74779791 18.21009581 34 14 C38.85034678 9.63179505 40.89630726 6.31107822 43 0 C48.28 0 53.56 0 59 0 C55.45507956 17.30755272 46.65385768 32.30584927 31.80078125 42.26953125 C30.87652344 42.84058594 29.95226562 43.41164063 29 44 C28.14792969 44.54011719 27.29585937 45.08023438 26.41796875 45.63671875 C18.42959184 50.00816939 10.73264172 49.43018319 2 48 C-0.9765625 46.94140625 -0.9765625 46.94140625 -3 46 C-2.62746094 45.48050781 -2.25492188 44.96101563 -1.87109375 44.42578125 C1.22692162 40.10457794 1.22692162 40.10457794 1.8125 35 C1.544375 34.34 1.27625 33.68 1 33 C-1.74603467 32.49615665 -1.74603467 32.49615665 -5 33 C-6.66796815 34.46731033 -8.06938317 36.07025492 -9.54296875 37.73046875 C-11 39 -11 39 -13.875 38.875 C-14.57625 38.58625 -15.2775 38.2975 -16 38 C-16 37.01 -16 36.02 -16 35 C-13.03 33.35 -10.06 31.7 -7 30 C-7 28.35 -7 26.7 -7 25 C-7.66 24.34 -8.32 23.68 -9 23 C-14.51597249 23.21215279 -17.55924314 24.87128494 -22 28 C-22.99 28 -23.98 28 -25 28 C-25.33 26.68 -25.66 25.36 -26 24 C-24.5459375 23.443125 -24.5459375 23.443125 -23.0625 22.875 C-19.72784137 21.28855632 -19.72784137 21.28855632 -19 17.9375 C-19 16.968125 -19 15.99875 -19 15 C-19.66 14.34 -20.32 13.68 -21 13 C-23.89160979 13.2730774 -23.89160979 13.2730774 -27 14 C-28.423125 14.2784375 -28.423125 14.2784375 -29.875 14.5625 C-30.926875 14.7790625 -30.926875 14.7790625 -32 15 C-32.8723412 12.00519083 -33.10829766 9.36424089 -33.0625 6.25 C-33.05347656 5.45078125 -33.04445313 4.6515625 -33.03515625 3.828125 C-33.02355469 3.22484375 -33.01195313 2.6215625 -33 2 C-22.05836843 -0.53718993 -11.16266152 -0.20392721 0 0 Z " fill="#787777" transform="translate(135,437)"/>
<path d="M0 0 C2.1723612 1.78763176 3.69647967 3.14709186 5.05859375 5.609375 C5.23828125 8.34765625 5.23828125 8.34765625 5.05859375 10.609375 C0.75544173 12.84063901 -3.44912116 14.82428488 -8.00390625 16.484375 C-14.72158388 19.16731844 -19.2472712 22.42304508 -22.31640625 29.109375 C-24.23809045 34.45456381 -24.345952 39.69431798 -24.609375 45.32421875 C-25.14025128 50.57677114 -26.7944926 54.62867402 -30.7578125 58.28515625 C-34.87734149 60.78340371 -39.29953789 60.27249905 -43.94140625 59.609375 C-49.38745658 57.67095031 -54.8975965 54.78363023 -58.94140625 50.609375 C-61.48307137 41.84970772 -58.13075036 32.42483051 -55.06640625 24.171875 C-54.82204834 23.51018311 -54.57769043 22.84849121 -54.32592773 22.16674805 C-51.11600625 13.9318764 -46.49658038 7.18105924 -38.359375 3.4140625 C-35.57787284 2.36370504 -32.79070283 1.45723435 -29.94140625 0.609375 C-29.25691406 0.3825 -28.57242188 0.155625 -27.8671875 -0.078125 C-19.66263619 -2.39925543 -7.85274698 -3.71258688 0 0 Z " fill="#FB6128" transform="translate(276.94140625,33.390625)"/>
<path d="M0 0 C1.02931641 -0.0103125 2.05863281 -0.020625 3.11914062 -0.03125 C22.17750356 0.18823211 38.35634525 7.83978497 52.0625 20.8125 C57.04756095 26.0037775 61.71057619 31.66153332 62.75 38.9375 C62.25 41.4375 62.25 41.4375 60.25 43.4375 C57.39453125 43.96875 57.39453125 43.96875 54.25 43.4375 C52.4839749 41.24306741 51.2585027 39.37658308 49.9375 36.9375 C42.24436788 24.02813595 31.01634888 16.90548147 16.75 12.5 C-5.44712599 7.73922231 -26.9432831 13.52346346 -45.8515625 25.3828125 C-49.70819812 28.12802575 -53.33922213 31.05570474 -56.875 34.19921875 C-57.40633545 34.66408691 -57.9376709 35.12895508 -58.48510742 35.60791016 C-59.98231986 36.92923895 -61.4548516 38.27838012 -62.92578125 39.62890625 C-65.75 41.4375 -65.75 41.4375 -69.10546875 41.21484375 C-69.97816406 40.95832031 -70.85085937 40.70179688 -71.75 40.4375 C-72.5625 37.26953125 -72.5625 37.26953125 -72.75 33.4375 C-70.75 30.69921875 -70.75 30.69921875 -67.75 28.125 C-66.93728638 27.42733521 -66.93728638 27.42733521 -66.1081543 26.71557617 C-46.86732885 10.59650712 -25.31296352 0.20932161 0 0 Z " fill="#060201" transform="translate(159.75,366.5625)"/>
<path d="M0 0 C4.18895705 2.73564542 6.98072798 5.40244695 9.0625 10 C10.21588954 16.55935275 9.68062344 22.55730445 6.25390625 28.32421875 C2.56609392 33.51133839 -1.81268049 37.20364108 -7.9375 39 C-15.3130224 39.92947073 -22.23855887 40.1781411 -28.38671875 35.5703125 C-30.95520635 32.96947619 -32.37839051 30.30531212 -33.9375 27 C-34.2675 26.34 -34.5975 25.68 -34.9375 25 C-35.75880032 18.51038105 -34.80556001 13.31588136 -30.9375 8 C-22.87543454 -0.71389203 -11.59232518 -4.01073751 0 0 Z " fill="#030303" transform="translate(448.9375,416)"/>
<path d="M0 0 C5.56203249 1.46760397 10.97615834 3.36802156 16.40026855 5.27319336 C18.00371371 5.81958614 19.6078802 6.36386675 21.21276855 6.90600586 C24.31769457 7.95647598 27.41931556 9.01595247 30.51916504 10.08129883 C36.22998312 12.03132649 41.99419041 13.79423696 47.77526855 15.52319336 C49.66463833 16.09335059 51.55396237 16.66365942 53.4432373 17.23413086 C54.79929077 17.64223999 54.79929077 17.64223999 56.18273926 18.05859375 C61.05231895 19.5292607 65.914113 21.02496029 70.77526855 22.52319336 C71.64570801 22.78922363 72.51614746 23.05525391 73.41296387 23.3293457 C97.46397357 30.73291483 97.46397357 30.73291483 103.77526855 41.52319336 C106.85095999 50.75026765 104.20680088 60.17927782 101.27526855 69.08569336 C100.91433105 70.21539551 100.55339355 71.34509766 100.18151855 72.5090332 C93.06262584 94.32609113 82.56175427 114.34847007 71.77526855 134.52319336 C70.78526855 134.19319336 69.79526855 133.86319336 68.77526855 133.52319336 C69.09165283 132.94690186 69.40803711 132.37061035 69.73400879 131.77685547 C91.99880535 92.01615454 91.99880535 92.01615454 95.12683105 47.98022461 C91.02209538 38.91121459 82.57729379 35.0226721 73.77526855 31.52319336 C68.76274519 29.78726311 63.67393231 28.29016122 58.587677 26.78741455 C54.56487726 25.59878607 50.54941404 24.38580039 46.53308105 23.17553711 C45.75618423 22.94213623 44.97928741 22.70873535 44.17884827 22.46826172 C38.61462106 20.79188271 33.08636186 19.02974425 27.58776855 17.14819336 C21.40533254 15.03277886 15.18137392 13.14958386 8.89929199 11.35253906 C4.30112629 10.02066775 -0.17174086 8.49596123 -4.66223145 6.83569336 C-10.12762548 4.82645023 -15.47258837 3.41119701 -21.22473145 2.52319336 C-15.66842363 -2.60439228 -6.98338374 -1.4966857 0 0 Z " fill="#F4F5F9" transform="translate(230.2247314453125,252.476806640625)"/>
<path d="M0 0 C0.12117188 0.73605469 0.24234375 1.47210938 0.3671875 2.23046875 C0.61855469 3.69419922 0.61855469 3.69419922 0.875 5.1875 C1.11863281 6.63189453 1.11863281 6.63189453 1.3671875 8.10546875 C1.90174934 10.99031583 1.90174934 10.99031583 3.078125 13.50390625 C5.32514775 19.58800599 3.68720409 27.02967311 1.25 32.875 C-0.71260646 36.78599114 -2.90265965 39.90265965 -6 43 C-8.15625 43.65625 -8.15625 43.65625 -10 44 C-10.13535156 43.41734375 -10.27070313 42.8346875 -10.41015625 42.234375 C-12.60403873 33.87922976 -16.23981349 24.51618996 -23.3125 19.125 C-26.49310335 16.61010433 -26.80205883 14.76495798 -28 11 C-30.03243548 10.03122943 -30.03243548 10.03122943 -32 10 C-32.33 7.69 -32.66 5.38 -33 3 C-28.81327853 2.49333528 -24.62551367 1.99586082 -20.4375 1.5 C-19.25607422 1.35691406 -18.07464844 1.21382812 -16.85742188 1.06640625 C-11.20429736 0.40133278 -5.69356379 -0.20065423 0 0 Z " fill="#F96028" transform="translate(366,211)"/>
<path d="M0 0 C4.25869442 1.35671151 7.70673061 3.25387421 11.4921875 5.58984375 C17.1917429 8.97125955 21.97748101 11.22045512 28.6171875 12.15234375 C29.6171875 13.15234375 29.6171875 13.15234375 29.6796875 16.71484375 C29.6590625 17.84921875 29.6384375 18.98359375 29.6171875 20.15234375 C24.53765404 19.65903549 21.03313578 17.82848793 16.8046875 15.15234375 C9.22118471 10.50029208 9.22118471 10.50029208 0.6171875 10.15234375 C-18.83364815 21.03375439 -27.90645063 57.40509805 -34.3828125 77.15234375 C-34.70934814 78.12824463 -35.03588379 79.10414551 -35.37231445 80.10961914 C-38.44557128 89.62837673 -40.50868256 99.31515643 -42.5703125 109.08984375 C-42.92853679 110.76247688 -43.28725802 112.43500367 -43.64648438 114.10742188 C-43.99002806 115.71474876 -44.33314273 117.32216741 -44.67578125 118.9296875 C-44.83306198 119.66726791 -44.99034271 120.40484833 -45.15238953 121.16477966 C-45.99185372 125.14796247 -46.74671558 129.13162684 -47.3828125 133.15234375 C-47.7128125 133.15234375 -48.0428125 133.15234375 -48.3828125 133.15234375 C-48.621363 125.40702547 -47.98911158 118.14874912 -46.6328125 110.52734375 C-46.44944336 109.47466309 -46.26607422 108.42198242 -46.07714844 107.33740234 C-40.39632136 75.40102027 -29.84014227 45.2822225 -15.0703125 16.40234375 C-14.59110352 15.45593018 -14.11189453 14.5095166 -13.61816406 13.53442383 C-6.64661066 0.29932773 -6.64661066 0.29932773 0 0 Z " fill="#F7F6F3" transform="translate(211.3828125,110.84765625)"/>
<path d="M0 0 C8.47330197 3.01306947 15.59080323 9.13780592 21.66015625 15.65234375 C22.9794674 17.12264379 22.9794674 17.12264379 25 18 C25 18.66 25 19.32 25 20 C-7.14847162 38 -7.14847162 38 -13 38 C-12.63780018 29.58790922 -9.77155756 22.75519266 -6.5 15.0625 C-5.9820221 13.82009904 -5.465087 12.57726278 -4.94921875 11.33398438 C-1.33412064 2.66824128 -1.33412064 2.66824128 0 0 Z " fill="#F0C447" transform="translate(73,243)"/>
<path d="M0 0 C3.25154712 0.02284145 6.49959514 0.10019574 9.75 0.1875 C10.67039062 0.19330078 11.59078125 0.19910156 12.5390625 0.20507812 C19.44104927 0.43014291 19.44104927 0.43014291 22.40234375 3.44921875 C22.92957031 4.29097656 23.45679688 5.13273437 24 6 C25.79484063 7.10929284 25.79484063 7.10929284 27.8125 7.625 C28.58851563 7.85574219 29.36453125 8.08648437 30.1640625 8.32421875 C34.88501609 9.44918427 39.662503 10.26826374 44.44921875 11.05859375 C48.39788392 12.10548958 50.91820147 13.3158529 54 16 C54.375 18.75 54.375 18.75 54 21 C42.51767399 21.40420183 31.13898742 20.8828237 19.69723511 19.93496704 C18.18987951 19.81158483 16.68197739 19.69470792 15.1736145 19.58432007 C13.02895801 19.42462068 10.88801789 19.23945158 8.74609375 19.046875 C6.86942017 18.88977051 6.86942017 18.88977051 4.95483398 18.72949219 C2 18 2 18 0.59057617 16.15039062 C-0.2790609 12.9838907 -0.18564026 10.02457429 -0.125 6.75 C-0.10695313 5.48671875 -0.08890625 4.2234375 -0.0703125 2.921875 C-0.04710937 1.95765625 -0.02390625 0.9934375 0 0 Z " fill="#F9F9F9" transform="translate(278,398)"/>
<path d="M0 0 C3.125 1.5625 3.125 1.5625 5 4 C5.70593348 8.23560091 5.29530847 10.40938305 3.375 14.25 C-0.37314847 18.58996138 -3.91467407 20.14032032 -9.5625 20.5625 C-12.96073218 20.43600066 -14.75235202 19.90928369 -17.125 17.4375 C-19 14 -19 14 -19.0625 10.4375 C-17.73598904 6.14584691 -16.06735321 3.2589651 -12.171875 0.88671875 C-8.21046332 -0.73062019 -4.1954046 -0.53543936 0 0 Z " fill="#F9F9F9" transform="translate(443,425)"/>
<path d="M0 0 C5.25147902 0.5644113 9.24644449 2.31024497 13.875 4.6875 C14.58172852 5.04690674 15.28845703 5.40631348 16.01660156 5.77661133 C23.09797478 9.45209565 29.40519917 13.29924878 34 20 C34 20.33 34 20.66 34 21 C28.62453964 21.18861264 24.01285177 21.2172229 19 19 C17.0625 15.8125 17.0625 15.8125 16.1484375 13.9375 C12.59562155 7.94363363 6.02541141 4.13823511 0 1 C0 0.67 0 0.34 0 0 Z " fill="#F4F2F1" transform="translate(450,362)"/>
<path d="M0 0 C4.18362452 0.72408886 5.56893527 2.26483286 8.1171875 5.546875 C9.86381997 8.65467623 9.79273251 11.10258026 9.25 14.5625 C7.25 16.5625 7.25 16.5625 4.5 17.125 C0.31637548 16.40091114 -1.06893527 14.86016714 -3.6171875 11.578125 C-5.36381997 8.47032377 -5.29273251 6.02241974 -4.75 2.5625 C-2.75 0.5625 -2.75 0.5625 0 0 Z " fill="#000000" transform="translate(31.75,217.4375)"/>
<path d="M0 0 C5.43943594 0.4101162 9.20430551 3.56088632 13.5 6.625 C14.24636719 7.13417969 14.99273437 7.64335937 15.76171875 8.16796875 C20.61569473 11.59582082 23.94737482 14.87573298 27 20 C26.8125 22.9375 26.8125 22.9375 26 25 C25.01 25.33 24.02 25.66 23 26 C22.76023437 25.27425781 22.52046875 24.54851562 22.2734375 23.80078125 C17.98993051 14.37969378 7.5073487 8.23304267 -1 3 C-0.67 2.01 -0.34 1.02 0 0 Z " fill="#E3BA43" transform="translate(81,232)"/>
<path d="M0 0 C7.59 0 15.18 0 23 0 C18.30434783 7.04347826 18.30434783 7.04347826 14 8 C10.87977565 8.46604444 8.10044981 8.6615788 5 8 C2.60918757 6.1999888 1.61740103 4.60871134 0 2 C0 1.34 0 0.68 0 0 Z " fill="#F9F9F9" transform="translate(145,437)"/>
<path d="M0 0 C0.33 0 0.66 0 1 0 C1.13342272 4.95609814 0.68703376 9.3941903 -0.3125 14.24609375 C-0.44567627 14.90207047 -0.57885254 15.55804718 -0.71606445 16.23390198 C-1.13766945 18.30313474 -1.56865529 20.37027807 -2 22.4375 C-2.28968825 23.85078334 -2.57875657 25.2641939 -2.8671875 26.67773438 C-3.57097041 30.11998833 -4.28317258 33.56043583 -5 37 C-5.33 37 -5.66 37 -6 37 C-6.27042441 28.94035105 -5.5070052 21.37177809 -4.125 13.4375 C-3.95097656 12.35919922 -3.77695313 11.28089844 -3.59765625 10.16992188 C-2.25637755 2.25637755 -2.25637755 2.25637755 0 0 Z " fill="#DDDACE" transform="translate(169,207)"/>
<path d="M0 0 C1.01404191 2.62784324 1.11225936 3.71608757 0.05957031 6.37841797 C-0.67374512 7.67223389 -0.67374512 7.67223389 -1.421875 8.9921875 C-1.95296875 9.94480469 -2.4840625 10.89742188 -3.03125 11.87890625 C-3.5984375 12.86761719 -4.165625 13.85632813 -4.75 14.875 C-5.84970193 16.83031114 -6.94868083 18.78602913 -8.046875 20.7421875 C-8.56314453 21.65452148 -9.07941406 22.56685547 -9.61132812 23.50683594 C-11.16701669 26.29985487 -12.61367009 29.11994843 -14 32 C-14.99 31.67 -15.98 31.34 -17 31 C-16.65219482 30.33991943 -16.30438965 29.67983887 -15.94604492 28.99975586 C-14.35711342 25.98044191 -12.77227751 22.95899622 -11.1875 19.9375 C-10.64029297 18.89916016 -10.09308594 17.86082031 -9.52929688 16.79101562 C-6.17258856 10.40329968 -6.17258856 10.40329968 -3.23828125 3.81640625 C-2 1 -2 1 0 0 Z " fill="#E7EAF5" transform="translate(316,355)"/>
<path d="M0 0 C0.33 0 0.66 0 1 0 C1.2396943 5.63281599 0.38529821 10.54538831 -1 16 C-1.66 16 -2.32 16 -3 16 C-3.21663944 10.58401402 -3.16169806 6.08634837 -1 1 C-0.67 0.67 -0.34 0.34 0 0 Z " fill="#EBE8DD" transform="translate(169,207)"/>
<path d="M0 0 C0.9435441 2.53899138 1.16906025 3.60909275 0.07421875 6.140625 C-0.61220703 7.18476563 -0.61220703 7.18476563 -1.3125 8.25 C-1.76238281 8.95640625 -2.21226562 9.6628125 -2.67578125 10.390625 C-3.11277344 10.92171875 -3.54976563 11.4528125 -4 12 C-4.66 12 -5.32 12 -6 12 C-5.57405412 10.55903414 -5.13373367 9.12231288 -4.6875 7.6875 C-4.44386719 6.88699219 -4.20023437 6.08648437 -3.94921875 5.26171875 C-2.95817977 2.90035427 -1.91925057 1.66120007 0 0 Z " fill="#EBEDF5" transform="translate(316,355)"/>
<path d="M0 0 C0 2 0 2 -1.25 3.6875 C-3 5 -3 5 -5.0625 4.75 C-7 4 -7 4 -9 3 C-9 2.34 -9 1.68 -9 1 C-3.375 -1.125 -3.375 -1.125 0 0 Z " fill="#6D6C6C" transform="translate(411,475)"/>
<path d="M0 0 C0.99 0.33 1.98 0.66 3 1 C1.68 3.31 0.36 5.62 -1 8 C-1.66 7.34 -2.32 6.68 -3 6 C-2.01 4.02 -1.02 2.04 0 0 Z " fill="#E1E3E9" transform="translate(309,367)"/>
</svg>
