<?xml version="1.0" standalone="no"?>
<!DOCTYPE svg PUBLIC "-//W3C//DTD SVG 20010904//EN"
 "http://www.w3.org/TR/2001/REC-SVG-20010904/DTD/svg10.dtd">
<svg version="1.0" xmlns="http://www.w3.org/2000/svg"
 width="512.000000pt" height="512.000000pt" viewBox="0 0 512.000000 512.000000"
 preserveAspectRatio="xMidYMid meet">

<g transform="translate(0.000000,512.000000) scale(0.100000,-0.100000)"
fill="#000000" stroke="none">
<path d="M4192 3333 c4 -456 -30 -423 433 -423 l316 0 -3 223 c-3 219 -3 223
-31 281 l-28 60 -157 -157 c-152 -150 -160 -157 -198 -157 -53 0 -84 31 -84
85 0 36 9 47 157 197 l157 157 -60 28 c-58 28 -62 28 -282 31 l-223 3 3 -328z"/>
<path d="M39 2630 c-29 -17 -43 -66 -29 -100 17 -41 37 -50 109 -50 56 0 61
-2 61 -22 1 -13 16 -216 34 -452 l33 -429 -33 -48 c-18 -27 -35 -66 -39 -87
-6 -39 10 -128 26 -138 25 -15 1 -24 -67 -24 -70 0 -78 -2 -105 -29 -38 -38
-38 -74 0 -112 l29 -29 2502 0 2502 0 29 29 c17 18 29 40 29 56 0 16 -12 38
-29 56 l-29 29 -268 0 -267 0 46 49 c175 187 151 479 -52 631 -102 77 -222
103 -345 76 -219 -49 -365 -261 -328 -477 15 -86 59 -175 115 -234 l44 -45
-639 0 -638 0 37 34 c127 115 168 324 94 482 -126 270 -465 334 -680 129 -172
-164 -172 -454 2 -611 l37 -34 -831 0 c-788 0 -831 1 -824 18 13 30 24 66 29
92 5 24 15 28 123 54 350 84 358 86 376 107 33 40 21 101 -25 125 -33 17 3 23
-376 -65 l-164 -37 -46 23 c-25 13 -51 23 -57 23 -8 0 -17 72 -29 223 -54 696
-54 696 -88 738 -35 43 -81 59 -168 59 -47 0 -92 -5 -101 -10z"/>
</g>
</svg>
